PathFileType	4	(X/Y/Z)	C:/Users/beibeiliu/ov580/test_trc/User2\sequence.14_training_dense_left.trc
DataRate	CameraRate	NumFrames	NumMarkers	Units	OrigDataRate	OrigDataStartFrame	OrigNumFrames
120	120	19	19	mm	120	59	87
Frame#	Time	ThumbCMC			ThumbMCP			ThumbIP			ThumbTip			IndexMCP			IndexPIP			IndexTip			MiddleMCP			MiddlePIP			MiddleTip			RingMCP			RingPIP			RingTip			PinkyMCP			PinkyPIP			PinkyTip			BackHand1			BackHand2			BackHand3	
		X0	Y0	Z0	X1	Y1	Z1	X2	Y2	Z2	X3	Y3	Z3	X4	Y4	Z4	X5	Y5	Z5	X6	Y6	Z6	X7	Y7	Z7	X8	Y8	Z8	X9	Y9	Z9	X10	Y10	Z10	X11	Y11	Z11	X12	Y12	Z12	X13	Y13	Z13	X14	Y14	Z14	X15	Y15	Z15	X16	Y16	Z16	X17	Y17	Z17	X18	Y18	Z18	
58	0.483333	-91.5272	-37.8471	-50.1337	-79.8796	-38.6201	-82.7953	-73.9096	-35.5111	-116.322	-81.6876	-33.5494	-144.906	-110.103	13.0728	-115.468	-105.072	8.56201	-147.483	-97.5487	-24.7369	-163.952	-137.194	15.7126	-119.747	-129.02	10.0723	-159.134	-116.598	-24.562	-170.965	-155.821	4.69362	-118.126	-149.305	2.30355	-152.457	-133.202	-24.2307	-161.915	-172.474	-15.3906	-110.715	-164.184	-10.7111	-142.562	-146.174	-35.6514	-157.987	-157.759	-16.3153	-68.2354	-161.398	-29.8145	-35.1666	-128.717	-10.8155	-47.5754	
59	0.491667	-84.4682	-36.8336	-44.0735	-71.5445	-44.6552	-76.4363	-64.9605	-48.5906	-110.071	-72.5501	-52.5715	-137.47	-95.5946	1.75169	-123.255	-86.543	-13.0508	-151.133	-85.7645	-41.929	-158.413	-125.953	3.83348	-129.217	-116.377	-7.95833	-160.821	-107.945	-46.6392	-167.495	-144.547	-6.18775	-126.592	-133.755	-17.6829	-155.651	-119.745	-51.3011	-157.647	-161.612	-26.2675	-111.674	-151.475	-31.5386	-147.249	-135.241	-54.1107	-150.106	-155.11	-19.3194	-65.6017	-157.114	-23.0284	-35.1187	-117.913	-7.11215	-47.6956	
60	0.5	-79.5847	-28.7207	-38.1965	-63.7717	-43.0175	-65.9879	-52.4973	-55.1461	-101.8	-57.4579	-65.2624	-122.931	-89.802	-13.6374	-119.837	-78.9459	-32.7897	-145.989	-69.6576	-68.8346	-146.768	-112.365	-14.754	-131.628	-103.543	-35.6741	-158.66	-83.8054	-73.3404	-155.702	-134.087	-27.4069	-128.757	-122.676	-46.4257	-154.109	-102.299	-72.4926	-147.508	-148.573	-43.0945	-112.821	-138.753	-56.6468	-142.478	-118.193	-80.0947	-143.01	-145.332	-23.1364	-71.824	-150.879	-21.5131	-35.4726	-119.178	-8.58706	-51.4425	
61	0.508333	-78.2394	-17.3955	-36.9226	-54.6302	-34.3289	-57.3329	-38.4235	-51.559	-84.0363	-36.277	-68.9637	-107.89	-84.1657	-27.0089	-119.364	-65.4291	-49.9216	-137.705	-46.0359	-76.3695	-129.186	-101.814	-36.682	-132.453	-83.4162	-63.6128	-149.827	-60.5797	-90.111	-134.127	-123.23	-52.3956	-125.598	-102.588	-70.5297	-145.442	-79.8191	-94.1736	-129.552	-137.533	-65.773	-111.186	-117.423	-81.7081	-133.839	-92.8115	-96.6499	-124.429	-140.99	-35.9395	-74.2368	-149.46	-26.9136	-42.8632	-117.434	-4.43583	-54.4178	
62	0.516667	-85.1221	-5.21825	-38.3917	-54.9263	-20.1752	-56.9811	-34.8029	-36.9355	-74.3834	-26.9636	-58.7093	-94.8711	-76.4828	-32.6923	-120.24	-53.373	-50.7445	-130.015	-29.9656	-72.73	-112.01	-92.357	-48.1982	-127.731	-61.8506	-70.5476	-138.575	-39.3978	-88.9045	-114.734	-107.225	-67.4023	-122.369	-82.4412	-81.0329	-135.613	-54.3832	-93.5551	-112.182	-119.997	-79.6876	-102.807	-96.0125	-95.2274	-122.205	-66.4101	-102.993	-109.722	-137.287	-42.6346	-71.0993	-148.677	-32.6205	-45.7118	-123.433	-9.43647	-61.7758	
63	0.525	-96.5256	2.30152	-45.3106	-62.7718	-3.61411	-58.5725	-37.1401	-18.5889	-75.3558	-23.7695	-40.8945	-88.9926	-75.6169	-31.7701	-119.586	-45.0947	-45.8841	-125.639	-18.6022	-53	-105.64	-83.3602	-54.2561	-126.177	-50.5752	-65.7499	-131.989	-22.3345	-67.6586	-103.931	-94.8578	-71.5377	-114.943	-63.4111	-81.3956	-126.464	-37.2751	-81.8991	-103.346	-103.332	-83.5828	-94.1927	-75.592	-97.7866	-111.534	-45.7306	-89.8249	-98.6827	-130.754	-51.3586	-72.484	-152.402	-46.1781	-47.3116	-130.098	-14.4946	-70.4659	
64	0.533333	-110.689	2.00573	-55.5116	-77.0634	9.61703	-65.644	-43.7831	-0.782168	-86.5013	-27.96	-20.2163	-91.716	-75.5333	-34.6212	-123.406	-42.3057	-38.3105	-127.67	-18.4441	-32.3398	-110.516	-77.9146	-55.0393	-126.178	-39.2589	-59.8591	-128.651	-14.4623	-49.507	-100.862	-81.0939	-78.3541	-112.709	-49.9741	-79.1428	-121.452	-24.4781	-63.4318	-99.8106	-85.2221	-86.0895	-89.5357	-54.7052	-93.0672	-103.549	-28.6451	-81.3721	-90.9444	-123.94	-63.1938	-71.7158	-145.008	-56.7406	-48.308	-133.549	-25.5019	-73.5067	
65	0.541667	-122.822	-6.70812	-65.525	-91.7334	4.87695	-83.3164	-62.3825	5.20855	-95.0534	-38.0632	-9.23147	-103.619	-81.3941	-42.0203	-126.296	-45.3379	-40.2221	-132.513	-19.7293	-24.4331	-114.962	-72.9217	-64.2654	-126.665	-34.8627	-61.6344	-129.594	-13.0341	-43.1535	-107.045	-69.4319	-80.5148	-110.963	-37.7937	-76.9065	-118.418	-17.0862	-55.7501	-100.693	-68.5649	-90.6829	-86.2067	-37.5841	-91.7884	-94.5983	-18.6876	-65.9341	-91.0732	-115.657	-74.6743	-68.3381	-137.338	-75.5765	-50.0266	-136.331	-46.5229	-77.0381	
66	0.55	-132.828	-21.9059	-76.6585	-109.087	-5.56755	-97.1086	-76.6073	-4.79196	-113.821	-49.4757	-12.27	-120.708	-84.4339	-58.2596	-131.526	-51.2144	-51.0667	-142.227	-29.2452	-27.2666	-128.417	-69.0396	-81.3105	-126.115	-38.1955	-70.7672	-137.633	-16.4447	-40.2873	-116.542	-62.5059	-92.4932	-107.55	-32.135	-86.7927	-117.748	-17.1991	-57.5064	-110.572	-61.9053	-96.1533	-77.858	-32.0399	-91.6536	-93.7727	-12.8616	-66.884	-90.4828	-110.091	-87.553	-67.4303	-129.314	-87.2652	-46.7448	-136.598	-65.7469	-79.6621	
67	0.558333	-140.689	-37.84	-84.8179	-119.196	-23.1812	-107.168	-89.5543	-20.2215	-130.557	-61.6199	-29.4341	-133.813	-88.3495	-78.632	-133.587	-60.5428	-69.2331	-149.507	-40.5628	-41.8759	-142.995	-73.309	-97.1561	-125.361	-41.0017	-86.1529	-141.334	-23.5751	-54.2478	-130.532	-64.589	-105.016	-106.827	-35.3118	-95.9769	-122.689	-23.1528	-64.6177	-120.571	-57.1751	-104.258	-80.5331	-29.1349	-97.7877	-97.0823	-17.6819	-68.1261	-101.987	-107.547	-99.0616	-65.3723	-126.605	-94.7335	-45.1824	-137.115	-80.7791	-79.5312	
68	0.566667	-148.911	-48.6249	-87.7105	-129.817	-36.9904	-115.55	-105.269	-37.1804	-137.662	-76.9461	-43.1092	-149.684	-99.6283	-95.9808	-139.851	-70.9442	-86.6356	-157.754	-54.3291	-59.9743	-152.478	-84.9423	-114.718	-127.77	-55.7846	-107.015	-147.298	-40.2365	-71.237	-147.536	-75.5062	-116.279	-109.191	-48.068	-111.734	-129.308	-33.142	-81.7052	-132.359	-62.8099	-111.946	-82.0089	-39.1733	-107.869	-106.484	-29.5166	-81.6414	-118.042	-109.108	-105.835	-67.854	-128.001	-102.421	-40.8896	-140.641	-91.3811	-77.84	
69	0.575	-157.038	-55.9123	-86.6327	-140.638	-49.5757	-120.015	-120.997	-50.639	-148.186	-96.1406	-56.877	-160.876	-120.596	-109.232	-143.819	-92.8587	-102.874	-163.463	-76.2335	-75.3602	-164.003	-100.747	-127.827	-131.585	-75.8585	-122.741	-154.044	-61.7002	-83.6046	-158.107	-86.9907	-127.034	-111.877	-65.5101	-125.913	-135.225	-55.6828	-92.7855	-145.994	-75.3464	-119.507	-90.082	-56.7835	-117.954	-117.534	-45.2203	-95.1236	-131.408	-118.545	-110.183	-64.3725	-133.755	-100.953	-37.0059	-151.304	-96.1903	-75.2331	
70	0.583333	-170.17	-54.6326	-88.5208	-154.616	-52.6912	-118.369	-139.495	-56.1167	-151.908	-117.326	-68.2554	-166.758	-145.262	-115.859	-143.59	-125.76	-115.429	-168.033	-101.159	-84.3467	-171.962	-129.448	-131.248	-134.275	-104.717	-130.544	-160.919	-91.9291	-94.0978	-168.129	-109.949	-133.87	-116.24	-92.5658	-130.958	-147.357	-80.4238	-96.7897	-154.272	-94.0178	-126.861	-98.4282	-77.5354	-128.712	-125.256	-72.1392	-100.393	-144.857	-129.614	-113.172	-68.6919	-145.046	-98.5871	-41.7701	-164.994	-95.1751	-73.2433	
71	0.591667	-178.694	-51.0142	-88.6026	-168.52	-44.3469	-118.688	-155.004	-54.7255	-150.784	-137.338	-68.0373	-171.08	-167.092	-112.456	-142.422	-150.047	-111.727	-170.925	-126.71	-85.5628	-176.923	-158.029	-129.872	-137.196	-139.275	-127.917	-169.47	-117.456	-91.8146	-171.873	-139.727	-135.367	-126.736	-126.056	-136.586	-152.427	-107.584	-100.822	-160.303	-119.766	-128.547	-103.477	-110.304	-132.859	-137.481	-99.7389	-105.604	-154.338	-147.732	-113.766	-74.1553	-155.555	-100.726	-43.8035	-181.982	-89.6618	-74.9499	
72	0.6	-175.409	-34.7057	-81.0985	-165.76	-31.8709	-115.272	-158.74	-37.9307	-150.931	-146.617	-58.0095	-168.993	-189.245	-92.5345	-145.719	-173.543	-95.9849	-173.584	-145.931	-77.5927	-181.557	-183.233	-114.412	-145.439	-162.085	-112.431	-175.911	-133.958	-87.1711	-173.671	-168.969	-125.639	-133.652	-156.646	-123.576	-164.129	-131.324	-95.3641	-165.127	-150.633	-125.224	-113.946	-142.415	-130.369	-146.93	-120.502	-107.288	-159.212	-167.375	-109.451	-75.417	-169.569	-95.8619	-44.166	-189.38	-76.439	-71.6634	
73	0.608333	-155.347	-25.3947	-74.427	-146.328	-23.8665	-109.767	-139.997	-27.5528	-146.802	-134.052	-40.6383	-168.209	-190.34	-57.0856	-145.732	-175.936	-61.9191	-177.309	-139.586	-62.4373	-180.226	-194.114	-78.5457	-148.328	-176.415	-84.784	-178.873	-134.261	-75.5165	-173.465	-188.06	-97.5984	-137.92	-172.891	-97.9625	-169.41	-138.097	-87.1802	-164.701	-174.372	-112.012	-123.84	-163.712	-114.977	-155.194	-134.949	-96.703	-157.75	-181.584	-90.7691	-82.8277	-177.539	-90.3216	-51.0736	-186.51	-56.5133	-72.9275	
74	0.616667	-129.927	-26.6385	-68.3912	-114.164	-20.5112	-101.838	-110.125	-25.6822	-138.929	-108.678	-35.5908	-162.263	-168.494	-30.9885	-142.919	-156.169	-40.079	-172.319	-123.631	-51.469	-177.776	-183.286	-46.5568	-149.161	-166.079	-57.1467	-178.131	-128.579	-66.4731	-175.497	-185.945	-66.6488	-137.904	-171.589	-74.8351	-171.002	-140.245	-79.0991	-165.186	-182.721	-90.977	-124.434	-173.921	-90.25	-154.333	-140.43	-90.132	-156.223	-180.026	-74.6807	-79.4973	-178.06	-69.4548	-48.0651	-169.457	-36.966	-67.7779	
75	0.625	-103.567	-32.3121	-61.1597	-88.2146	-34.6248	-92.6924	-80.5919	-35.7147	-126.436	-83.972	-45.9773	-152.707	-140.942	-19.5855	-136.038	-128.014	-32.2532	-166.147	-103.481	-52.8193	-171.554	-158.648	-26.545	-141.528	-146.678	-41.1667	-173.6	-115.078	-68.655	-170.732	-172.688	-47.329	-136.571	-158.917	-52.3233	-165.732	-128.609	-76.9021	-159.861	-175.406	-68.9745	-120.295	-169.854	-72.5061	-153.301	-137.357	-82.9928	-154.307	-169.398	-52.764	-80.0429	-167.351	-56.9775	-42.6374	-148.502	-30.0765	-58.59	
76	0.633333	-87.6362	-43.9886	-56.3532	-70.9876	-49.9344	-84.5269	-68.3068	-53.5266	-119.638	-69.5432	-59.1553	-146.906	-110.957	-15.2622	-126.986	-102.276	-28.0983	-159.396	-92.5589	-59.086	-166.004	-135.906	-19.5002	-137.403	-128.25	-35.8962	-169.056	-107.392	-67.626	-171.553	-152.652	-33.0287	-130.093	-145.537	-45.8797	-162.681	-125.297	-72.8165	-160.576	-168.406	-54.5881	-118.371	-160.449	-58.3121	-149.576	-132.26	-81.3849	-154.728	-156.986	-46.1569	-71.2044	-161.42	-49.9712	-42.4741	-130.785	-27.4264	-56.6834	
